<?xml version="1.0" encoding="utf-8"?>
<!DOCTYPE svg PUBLIC "-//W3C//DTD SVG 1.1//EN" "http://www.w3.org/Graphics/SVG/1.1/DTD/svg11.dtd">
<svg version="1.1" xmlns="http://www.w3.org/2000/svg" xmlns:xlink="http://www.w3.org/1999/xlink" x="0px" y="0px" viewBox="0 0 1000 1000" enable-background="new 0 0 1000 1000" xml:space="preserve" fill="#ffe102">
<g><path d="M500,990c-182.2,0-330.8-151.6-330.8-336.9c0-7.7,0-16.8,1.5-26c1.5-27.6,7.7-55.1,15.3-79.6c61.3-219,280.2-496.1,289.4-506.8L500,10l23,29.1c9.2,12.3,228.2,289.4,290.9,508.4c7.7,24.5,13.8,52.1,15.3,79.6c1.5,9.2,1.5,18.4,1.5,26C830.8,838.4,682.2,990,500,990z M500,108c-58.2,78.1-208.3,289.4-255.7,456.3c-7.7,23-12.2,44.4-13.8,67.4c0,7.7-1.5,15.3-1.5,21.4c0,153.1,121,277.2,271,277.2c150.1,0,271-124,271-277.2c0-6.1,0-12.3-1.5-19.9l0,0c-1.5-23-6.1-45.9-12.2-65.8C708.3,397.4,558.2,186.1,500,108z"/></g>
</svg>