<?xml version="1.0" encoding="utf-8"?>
<!DOCTYPE svg PUBLIC "-//W3C//DTD SVG 1.1//EN" "http://www.w3.org/Graphics/SVG/1.1/DTD/svg11.dtd">
<svg version="1.1" xmlns="http://www.w3.org/2000/svg" xmlns:xlink="http://www.w3.org/1999/xlink" x="0px" y="0px" viewBox="0 0 1000 1000" enable-background="new 0 0 1000 1000" xml:space="preserve" fill="#ffe102">
<g><path d="M633.6,665.8c91.2-90.6,152.9-260,152.9-369.3C786.5,138.5,658,10,500,10c-158,0-286.5,128.5-286.5,286.5c0,110.4,60.7,276.7,151.2,367.6c-19.5,15.8-32,39.9-32,67v143.9c0,47.7,38.7,86.3,86.3,86.3h19.5c6.4,15.3,18.8,28.8,37.3,28.8h41.6c18.6,0,32.2-13.5,39.4-28.8h20.3c47.7,0,86.3-38.7,86.3-86.3V731.1C663.6,705,651.9,681.6,633.6,665.8z M391.4,882.6c-0.7-2.4-1.2-5-1.2-7.6v-61.2l213.8-93c1.3,3.2,2,6.7,2,10.3v58.1L391.4,882.6z M419,702.3h155.3l-184,80v-51.3C390.2,715.2,403.1,702.3,419,702.3z M271,296.5c0-126.2,102.7-229,229-229c126.2,0,229,102.7,229,229c0,105.2-66.2,275.4-154.9,345.7l2,2.5H429.4C340.1,577.1,271,402.8,271,296.5z M577.3,903.7H419c-1.2,0-2.2-0.2-3.4-0.3L606,820.6v54.4C606,890.8,593.1,903.7,577.3,903.7z"/><path d="M503.9,313.9c3.9,0,7.5-1.6,10.2-4.2c2.6-2.7,4.2-6.5,4.2-10.2s-1.6-7.5-4.2-10.2c-5.3-5.3-15.1-5.3-20.4,0c-2.6,2.7-4.2,6.3-4.2,10.2c0,3.9,1.6,7.5,4.2,10.2C496.4,312.3,500.2,313.9,503.9,313.9z"/><path d="M505.3,342.7c-8,0-14.4,6.4-14.4,14.4V429c0,8,6.4,14.4,14.4,14.4s14.4-6.4,14.4-14.4V357C519.7,349.1,513.3,342.7,505.3,342.7z"/><path d="M444.8,444.1c3.7,0,7.4-1.4,10.2-4.2c5.6-5.6,5.6-14.7,0-20.3l-39.2-39.2c-5.6-5.6-14.7-5.6-20.3,0c-5.6,5.6-5.6,14.7,0,20.3l39.2,39.2C437.5,442.7,441.1,444.1,444.8,444.1z"/><path d="M565.3,444.1c3.7,0,7.4-1.4,10.2-4.2l39.2-39.2c5.6-5.6,5.6-14.7,0-20.3c-5.6-5.6-14.7-5.6-20.3,0l-39.2,39.2c-5.6,5.6-5.6,14.7,0,20.3C557.9,442.7,561.6,444.1,565.3,444.1z"/></g>
</svg>