<?xml version="1.0" encoding="utf-8"?>
<!DOCTYPE svg PUBLIC "-//W3C//DTD SVG 1.1//EN" "http://www.w3.org/Graphics/SVG/1.1/DTD/svg11.dtd">
<svg version="1.1" xmlns="http://www.w3.org/2000/svg" xmlns:xlink="http://www.w3.org/1999/xlink" x="0px" y="0px" viewBox="0 0 1000 1000" enable-background="new 0 0 1000 1000" xml:space="preserve" fill="#ffe102">
<g><path d="M569.3,276.1H428.5c0,0-231.7,228.4-231.7,452.3c0,237.4,242.8,256.2,242.8,256.2s72.4,12.1,117.5,0c0,0,246.2-28.9,246.2-255C803.3,503.4,569.3,276.1,569.3,276.1z M579.7,756.9c-5.7,11.6-13.4,21.2-23.2,28.9c-9.8,7.7-21.2,13.6-34.3,17.5c-1.7,0.5-3.4,1-5.1,1.4v39.1h-35.5v-34.7c-0.4,0-0.9,0-1.3,0c-10,0-19.4-0.8-28-2.4c-8.6-1.7-16.3-3.7-22.9-6c-6.6-2.3-12.2-4.7-16.6-7.2c-4.4-2.5-7.7-4.8-9.6-6.7c-2-2-3.4-4.8-4.2-8.5c-0.8-3.7-1.2-9-1.2-16c0-4.6,0.1-8.6,0.5-11.7c0.3-3.2,0.8-5.7,1.5-7.7c0.7-2,1.5-3.4,2.7-4.2c1.1-0.8,2.5-1.2,4-1.2c2.1,0,5.1,1.2,8.9,3.7c3.8,2.5,8.7,5.2,14.8,8.2c6,3,13.2,5.7,21.5,8.2c8.3,2.5,18,3.7,29,3.7c7.2,0,13.7-0.9,19.4-2.7c5.7-1.7,10.5-4.1,14.5-7.3c4-3.2,7-7.1,9.1-11.8c2.1-4.7,3.2-9.9,3.2-15.6c0-6.6-1.8-12.2-5.4-17c-3.6-4.7-8.3-8.9-14.1-12.6c-5.8-3.7-12.4-7.1-19.7-10.3c-7.4-3.3-15-6.7-22.8-10.3c-7.9-3.5-15.4-7.6-22.8-12.2c-7.4-4.6-14-10-19.7-16.4c-5.8-6.4-10.5-14-14.1-22.6c-3.6-8.7-5.4-19.2-5.4-31.3c0-14,2.6-26.2,7.7-36.8c5.1-10.6,12.2-19.4,20.9-26.4c8.8-7,19.2-12.2,31.1-15.6c6.1-1.8,12.5-3.1,19-4v-37.3h35.5v37c1.4,0.2,2.8,0.3,4.3,0.6c6.9,1.1,13.4,2.5,19.4,4.3c6,1.8,11.4,3.8,16,6c4.6,2.2,7.7,4.1,9.2,5.6c1.5,1.5,2.5,2.7,3.1,3.8c0.5,1.1,1,2.5,1.3,4.2c0.4,1.7,0.7,3.9,0.8,6.6c0.1,2.6,0.2,5.9,0.2,9.8c0,4.3-0.1,8-0.3,11.1c-0.2,3-0.6,5.5-1.1,7.4c-0.5,1.9-1.3,3.4-2.2,4.3c-1,0.9-2.3,1.3-4,1.3c-1.7,0-4.3-1-7.9-3.1c-3.5-2.1-8-4.4-13.2-6.9c-5.3-2.4-11.3-4.7-18.3-6.7c-6.9-2-14.5-3-22.8-3c-6.5,0-12.1,0.8-16.9,2.4c-4.8,1.5-8.8,3.7-12.1,6.4c-3.3,2.8-5.7,6.1-7.2,10c-1.6,3.8-2.4,8-2.4,12.3c0,6.5,1.8,12.1,5.3,16.8c3.5,4.7,8.2,9,14.2,12.6c5.9,3.7,12.7,7.2,20.2,10.3c7.5,3.3,15.1,6.7,23,10.2c7.8,3.7,15.4,7.7,23,12.3c7.5,4.6,14.2,10.1,20,16.4c5.8,6.4,10.6,13.9,14.2,22.5c3.6,8.7,5.4,18.8,5.4,30.6C588.4,731.9,585.5,745.3,579.7,756.9z M428.5,258.4h141.9v-53.2H428.5V258.4z M568.2,187.4L640.2,10c0,0-45.4,37.7-72.1,37.7c-26.6,0-68.8-36.6-68.8-36.6S454,47.7,427.3,47.7c-26.6,0-69.9-35.5-69.9-35.5l73.2,175.2H568.2z"/></g>
</svg>